<?xml version="1.0" standalone="no"?><!DOCTYPE svg PUBLIC "-//W3C//DTD SVG 1.1//EN" "http://www.w3.org/Graphics/SVG/1.1/DTD/svg11.dtd"><svg t="1563514207484" class="icon" viewBox="0 0 1024 1024" version="1.1" xmlns="http://www.w3.org/2000/svg" p-id="2455" xmlns:xlink="http://www.w3.org/1999/xlink" width="200" height="200"><defs><style type="text/css"></style></defs><path d="M730.285714 613.714286l0 62.285714q0 28.571429-20.857143 50.857143t-53.714286 34.571429-67.428571 18.571429-67.142857 6.285714q-117.142857 0-195.714286-79.428571t-78.571429-197.714286q0-116 77.714286-193.714286t193.714286-77.714286q19.428571 0 43.142857 2.571429t53.142857 10.285714 52.857143 19.428571 39.428571 32.285714 16 46.285714l0 62.285714q0 9.142857-9.142857 9.142857l-67.428571 0q-9.142857 0-9.142857-9.142857l0-40q0-24.571429-37.428571-38.571429t-78.571429-14q-80 0-130.571429 52.285714t-50.571429 135.714286q0 86.285714 52.285714 142.571429t133.428571 56.285714q38.857143 0 78.857143-13.714286t40-37.714286l0-40q0-4 2.571429-6.571429t6-2.571429l68 0q3.428571 0 6.285714 2.571429t2.857143 6.571429zm-218.285714-467.428571q-74.285714 0-142 29.142857t-116.571429 78-78 116.571429-29.142857 142 29.142857 142 78 116.571429 116.571429 78 142 29.142857 142-29.142857 116.571429-78 78-116.571429 29.142857-142-29.142857-142-78-116.571429-116.571429-78-142-29.142857zm438.857143 365.714286q0 119.428571-58.857143 220.285714t-159.714286 159.714286-220.285714 58.857143-220.285714-58.857143-159.714286-159.714286-58.857143-220.285714 58.857143-220.285714 159.714286-159.714286 220.285714-58.857143 220.285714 58.857143 159.714286 159.714286 58.857143 220.285714z" p-id="2456"></path></svg>