<?xml version="1.0" standalone="no"?><!DOCTYPE svg PUBLIC "-//W3C//DTD SVG 1.1//EN" "http://www.w3.org/Graphics/SVG/1.1/DTD/svg11.dtd"><svg t="1563544762607" class="icon" viewBox="0 0 1024 1024" version="1.1" xmlns="http://www.w3.org/2000/svg" p-id="3344" xmlns:xlink="http://www.w3.org/1999/xlink" width="200" height="200"><defs><style type="text/css"></style></defs><path d="M512 81.221818a430.824727 430.824727 0 1 0 0.046545 861.602909A430.824727 430.824727 0 0 0 512 81.221818z m273.408 631.156364a32.768 32.768 0 0 1-29.835636 19.176727H268.613818a32.814545 32.814545 0 0 1-24.855273-54.458182c46.545455-53.573818 109.847273-90.437818 180.736-107.287272 4.887273-1.954909 9.821091-3.863273 14.708364-5.632 4.701091-1.722182 26.996364-13.870545 14.522182-46.638546-31.976727-32.628364-56.180364-85.690182-56.180364-137.867636 0-79.872 52.782545-121.669818 114.594909-121.669818 61.672727 0 114.827636 41.797818 114.827637 121.669818 0 51.944727-24.296727 104.773818-56.133818 137.541818h0.139636c-12.288 37.096727 7.261091 45.940364 10.426182 46.964364 3.258182 1.024 6.609455 2.280727 9.867636 3.444363 74.286545 15.732364 140.706909 53.76 189.114182 109.474909a33.093818 33.093818 0 0 1 5.026909 35.281455z" p-id="3345"></path></svg>