<?xml version="1.0" standalone="no"?><!DOCTYPE svg PUBLIC "-//W3C//DTD SVG 1.1//EN" "http://www.w3.org/Graphics/SVG/1.1/DTD/svg11.dtd"><svg t="1563697969838" class="icon" viewBox="0 0 1025 1024" version="1.1" xmlns="http://www.w3.org/2000/svg" p-id="3169" xmlns:xlink="http://www.w3.org/1999/xlink" width="200.1953125" height="200"><defs><style type="text/css"></style></defs><path d="M513.024 0C229.888 0 1.024 229.376 1.024 512s229.376 512 512 512 512-229.376 512-512S795.648 0 513.024 0z m0 160.768c108.032 0 195.584 87.552 195.584 195.584s-87.552 195.584-195.584 195.584S317.44 463.872 317.44 356.352c0-108.032 87.552-195.584 195.584-195.584z m0 742.912c-118.784 0-230.912-53.76-304.64-146.432 74.24-92.672 186.368-146.432 304.64-146.432 118.784 0 230.912 53.76 304.64 146.432-74.24 92.16-186.368 146.432-304.64 146.432z m0 0" p-id="3170"></path></svg>