<?xml version="1.0" standalone="no"?><!DOCTYPE svg PUBLIC "-//W3C//DTD SVG 1.1//EN" "http://www.w3.org/Graphics/SVG/1.1/DTD/svg11.dtd"><svg t="1563513108470" class="icon" viewBox="0 0 1024 1024" version="1.1" xmlns="http://www.w3.org/2000/svg" p-id="1528" xmlns:xlink="http://www.w3.org/1999/xlink" width="200" height="200"><defs><style type="text/css"></style></defs><path d="M1024 640q0 94.857143-72.571429 257.714286-1.714286 4-6 13.714286t-7.714286 17.142857-7.428571 12.571429q-6.857143 9.714286-16 9.714286-8.571429 0-13.428571-5.714286t-4.857143-14.285714q0-5.142857 1.428571-15.142857t1.428571-13.428571q2.857143-38.857143 2.857143-70.285714 0-57.714286-10-103.428571t-27.714286-79.142857-45.714286-57.714286-60.285714-39.714286-76-24.285714-88-12.285714-100.285714-3.428571l-128 0 0 146.285714q0 14.857143-10.857143 25.714286t-25.714286 10.857143-25.714286-10.857143l-292.571429-292.571429q-10.857143-10.857143-10.857143-25.714286t10.857143-25.714286l292.571429-292.571429q10.857143-10.857143 25.714286-10.857143t25.714286 10.857143 10.857143 25.714286l0 146.285714 128 0q407.428571 0 500 230.285714 30.285714 76.571429 30.285714 190.285714z" p-id="1529"></path></svg>